<svg xmlns="http://www.w3.org/2000/svg" version="1.1" xmlns:xlink="http://www.w3.org/1999/xlink" xmlns:svgjs="http://svgjs.com/svgjs" width="512" height="512" x="0" y="0" viewBox="0 0 64 64" style="enable-background:new 0 0 512 512" xml:space="preserve" class=""><g><path fill="#41a1f2" fill-rule="evenodd" d="M44.724 25.474c.012.282.02.564.02.85 0 8.674-6.604 18.678-18.68 18.678A18.588 18.588 0 0 1 16 42.054c.514.06 1.036.09 1.566.09 3.076 0 5.906-1.048 8.154-2.81a6.57 6.57 0 0 1-6.134-4.558 6.624 6.624 0 0 0 2.966-.114 6.566 6.566 0 0 1-5.266-6.436v-.084a6.533 6.533 0 0 0 2.974.822 6.565 6.565 0 0 1-2.922-5.464 6.53 6.53 0 0 1 .89-3.302 18.64 18.64 0 0 0 13.532 6.86 6.585 6.585 0 0 1-.17-1.496 6.566 6.566 0 0 1 11.356-4.492 13.137 13.137 0 0 0 4.17-1.592 6.598 6.598 0 0 1-2.886 3.632A13.174 13.174 0 0 0 48 22.076a13.364 13.364 0 0 1-3.276 3.398M32 0C14.326 0 0 14.326 0 32c0 17.672 14.326 32 32 32s32-14.328 32-32C64 14.326 49.674 0 32 0" data-original="#41a1f2" class=""></path></g></svg>